<svg width="23" height="23" viewBox="0 0 23 23" fill="none" xmlns="http://www.w3.org/2000/svg">
<path d="M10.2128 2.2666L11.3056 1.18262C11.7683 0.723633 12.5166 0.723633 12.9744 1.18262L22.5437 10.6699C23.0064 11.1289 23.0064 11.8711 22.5437 12.3252L12.9744 21.8174C12.5116 22.2764 11.7634 22.2764 11.3056 21.8174L10.2128 20.7334C9.74519 20.2695 9.75504 19.5127 10.2325 19.0586L16.1641 13.4531H2.01685C1.36216 13.4531 0.835449 12.9307 0.835449 12.2812V10.7188C0.835449 10.0693 1.36216 9.54688 2.01685 9.54688H16.1641L10.2325 3.94141C9.75012 3.4873 9.74027 2.73047 10.2128 2.2666Z" fill="black"/>
</svg>
